PathFileType	4	(X/Y/Z)	T1_P1_Vision_Movement_2_0-687.trc
DataRate	CameraRate	NumFrames	NumMarkers	Units	OrigDataRate	OrigDataStartFrame	OrigNumFrames
60	60	4	27	m	60	257	687
Frame#	Time	RHip			RKnee			RAnkle			RBigToe			RSmallToe			RHeel			LHip			LKnee			LAnkle			LBigToe			LSmallToe			LHeel			Neck			Head			Nose			RShoulder			RElbow			RWrist			RThumb			RIndex			RPinky			LShoulder			LElbow			LWrist			LThumb			LIndex			LPinky		
		X1	Y1	Z1	X2	Y2	Z2	X3	Y3	Z3	X4	Y4	Z4	X5	Y5	Z5	X6	Y6	Z6	X7	Y7	Z7	X8	Y8	Z8	X9	Y9	Z9	X10	Y10	Z10	X11	Y11	Z11	X12	Y12	Z12	X13	Y13	Z13	X14	Y14	Z14	X15	Y15	Z15	X16	Y16	Z16	X17	Y17	Z17	X18	Y18	Z18	X19	Y19	Z19	X20	Y20	Z20	X21	Y21	Z21	X22	Y22	Z22	X23	Y23	Z23	X24	Y24	Z24	X25	Y25	Z25	X26	Y26	Z26	X27	Y27	Z27
258	4.3	-123.65332129809595	3896.9161719804524	-648.9966440721929	239.96847895872708	4060.439281787005	-649.4231509853703	600.4928890810389	4265.753638284992	-691.6841265509747	684.0219913892031	4179.928481870556	-645.4384114120893	669.7683305864582	4139.543917698011	-687.5167115871	638.3476057632175	4314.709550584296	-698.4026100114472	-146.87647168578792	4071.4933149287153	-511.343426960556	210.62288637154435	4171.794457838864	-500.84954380265435	549.378803600174	4332.215571467451	-515.7528333784006	642.7794479760297	4250.261875404285	-410.62172701801626	609.4548459496662	4278.0479743581245	-378.84350186913065	607.6451341482639	4383.751536514573	-540.4910059158245	-721.3229246861401	3828.3606256753787	-594.6318156185436	-957.2809017077789	3691.1541114226343	-546.8871818649768	-804.321531350502	3648.527372953671	-477.937717771046	-606.4502553775458	3766.5682540505995	-730.2206077625495	-381.82799662893535	3620.880468193266	-696.8379653744366	-562.2465145084982	3554.8569339085648	-555.615865662571	-675.6929494852836	3527.125579167555	-525.7556537457384	-684.2802533626107	3504.2721881806647	-505.10285237841254	-666.9508708933346	3499.526669371018	-517.2354310357664	-662.7816018092163	3944.7625682324156	-487.59263868913865	-429.69633186776065	4089.005606726001	-417.6732304457012	-157.80798945057325	4095.468700682465	-366.009830060645	-40.32847887310721	4105.93167080406	-371.5129780107795	-6.592809889038889	4149.303834063392	-369.57188096413915	-28.687995549669765	4151.469470350775	-336.11243692889616
259	4.316666666666666	-123.86352890393957	3896.8453661844296	-647.9416495867425	239.8727671137093	4066.304190304157	-653.9595961186458	600.522080981354	4265.6350294577915	-691.7935925493163	684.7585962374435	4191.282930849685	-648.4114251539334	668.7092126486342	4138.254221924875	-687.0974476753878	638.4678793923036	4314.558678540503	-698.3262471280946	-147.7366234777561	4071.21800962321	-511.3144900157045	210.33743230756073	4177.903718540418	-502.7050594847656	549.8938497099278	4332.017036017872	-515.7699206495956	642.0684748751796	4245.159759424064	-409.51912287219875	609.3466285086346	4277.367182269479	-378.7086310183576	608.145067559345	4386.64744029594	-541.1184838815751	-720.7152933240021	3823.532372042263	-593.4602622148063	-956.1347085532333	3686.4699748855937	-545.7278719467793	-803.9210771784492	3648.5387898952235	-477.9414903833368	-606.8021793337963	3761.4758296279533	-726.2512914036301	-380.5755484782872	3621.849516918044	-697.3034428933382	-562.1916187913841	3559.6196193231654	-556.9054995022716	-674.8318934773332	3527.4114079081646	-525.902908719853	-683.4745580694513	3504.971212271821	-505.4899449484681	-666.839022518092	3496.1414465305907	-514.2368999351827	-662.9273793793726	3943.0471646137585	-488.6174482212759	-430.5837255384787	4088.6461182346457	-417.73954079806754	-157.9038974944446	4095.2849675378675	-365.9924491459625	-40.97009524382234	4106.24575319481	-371.63790964582995	-6.6015117019853395	4149.0419165149615	-369.5152710231252	-29.568104258730433	4151.191703270446	-336.46033697820883
260	4.333333333333333	-123.44122645840952	3897.0482336406517	-646.859131692969	241.60721938089353	4074.0209074050763	-659.6797588814728	600.4846426333997	4265.381619771374	-691.6670744065391	685.0661843553772	4199.861915528608	-650.7089636834254	668.9572177695698	4143.084081149599	-690.606376509006	638.4801389114282	4314.356537303156	-698.2400361444458	-148.50781376914207	4071.0283940363415	-510.95671371798824	210.46449511529406	4183.876777530402	-503.39401314493705	551.3529288752883	4332.874883964339	-516.3150987037562	642.3323829321706	4245.697966674635	-410.8811560601382	609.4507922536582	4278.068831976201	-378.86088629105785	608.0826987642427	4384.093774751436	-541.0596249599243	-719.1745343856397	3818.882501558904	-592.2010632134168	-954.9692756400291	3681.9933066872245	-544.5314651716894	-804.3491677277477	3648.239577331811	-477.8756241320498	-607.1781389421378	3757.038609636127	-722.7568303464544	-380.28508949834065	3622.2579336251856	-697.5706592048214	-562.2430596684262	3564.4856373284847	-558.2841665588168	-673.7405518711023	3527.689070269454	-525.86674855893	-682.9736086146152	3507.177044096052	-507.30833482990516	-666.6037322893535	3493.231935543295	-511.8751683577492	-662.8725294741681	3935.6338510849832	-486.1931861526076	-431.18912725261214	4088.370072043349	-417.77210067159916	-157.95228803453645	4095.17041908975	-366.02206297448254	-41.26350548252142	4105.212111560239	-371.53476240790474	-6.535423602088976	4149.064567496359	-369.57334077049893	-29.837233180429482	4151.191858496487	-336.9440486672212
261	4.35	-122.48628797692206	3897.556832778291	-646.2450161798484	244.09416826757064	4079.229510185279	-663.4091406632372	600.3004911717583	4265.158743016578	-691.5629409785599	684.5460292190471	4202.901689561819	-651.678620642351	669.8158849857316	4153.831121194278	-697.0330323598316	638.2197038274455	4314.135229360426	-698.176968867407	-148.70495803710043	4071.0256989137347	-510.55182626100014	211.2743952476587	4190.091853043771	-503.5156565975034	552.4647748393111	4335.582863270927	-517.7188175819501	643.7164544902345	4252.887825455059	-414.24810560377887	609.7097149651912	4278.9198209354645	-379.08483728919646	607.6424802939425	4378.911765575429	-541.0424873949856	-717.0413288938876	3815.111968192235	-591.0797513188168	-953.7462178946968	3677.3143330121156	-543.210976895581	-805.1082349564708	3647.7379687166604	-477.7103011257416	-607.5719755718816	3757.440988118813	-723.135645294537	-380.35068485654085	3622.282065471668	-697.6398405541402	-562.3257569174108	3566.62512177467	-558.9931859766212	-672.9929528548779	3527.894448773075	-525.8219613142724	-683.457927470471	3510.7763392623706	-510.66153077157685	-666.2442563324468	3494.0276570131314	-512.9335081053385	-662.6566869002919	3927.978895087206	-483.1033059597288	-431.3705949936587	4088.244262562648	-417.7696956550478	-157.9336487806221	4095.159737514945	-366.0812450727855	-40.7947541942058	4101.89857209291	-370.96129987952696	-6.3739901384272235	4149.291010462213	-369.7142778816903	-29.314460304730588	4151.41919483199	-336.5828137608645
